Coordinates
version=1
nRows=7
nColumns=40
inDegrees=yes

Units are S.I. units (second, meters, Newtons, ...)
If the header above contains a line with 'inDegrees', this indicates whether rotational values are in degrees (yes) or radians (no).

endheader
time	pelvis_tilt	pelvis_list	pelvis_rotation	pelvis_tx	pelvis_ty	pelvis_tz	hip_flexion_r	hip_adduction_r	hip_rotation_r	knee_angle_r	knee_angle_r_beta	ankle_angle_r	subtalar_angle_r	mtp_angle_r	hip_flexion_l	hip_adduction_l	hip_rotation_l	knee_angle_l	knee_angle_l_beta	ankle_angle_l	subtalar_angle_l	mtp_angle_l	lumbar_extension	lumbar_bending	lumbar_rotation	arm_flex_r	arm_add_r	arm_rot_r	elbow_flex_r	pro_sup_r	wrist_flex_r	wrist_dev_r	arm_flex_l	arm_add_l	arm_rot_l	elbow_flex_l	pro_sup_l	wrist_flex_l	wrist_dev_l
      2.00000000	     -0.76768994	      4.28412780	      5.43269689	     -0.31321025	      1.00527999	     -0.73364249	      5.05518285	      0.21387675	     -9.90061429	     10.88424075	      0.18996584	     -9.92823763	      0.00000000	      0.00000000	     21.56032096	      0.39206546	      0.32446471	     33.90313248	      0.59172129	     -9.33152763	      0.00000000	      0.00000000	     -5.93429539	     -0.86946224	     -5.91209001	     88.56274574	     -8.35863290	     51.67481369	     26.06379340	     84.09579884	      0.00000000	      0.00000000	     89.01517490	    -16.84815652	     57.08690237	     30.65234586	     84.92172521	      0.00000000	      0.00000000
      2.00500000	     -0.83596906	      4.25949107	      5.46646802	     -0.31354692	      1.00516163	     -0.73350891	      5.12582495	      0.24752838	     -9.82714567	     10.82174463	      0.18887507	    -10.05529430	      0.00000000	      0.00000000	     21.76454298	      0.39949938	      0.28922910	     33.78210754	      0.58960900	     -9.59598019	      0.00000000	      0.00000000	     -5.84168605	     -0.88328128	     -6.06603786	     88.50714702	     -8.12489764	     51.21360675	     25.86830995	     84.33531145	      0.00000000	      0.00000000	     88.98258953	    -16.94466366	     57.00864169	     30.60830723	     85.34747007	      0.00000000	      0.00000000
      2.01000000	     -0.81148742	      4.22846980	      5.53040598	     -0.31404717	      1.00515975	     -0.73332588	      5.18227670	      0.26661892	     -9.94533885	     10.94102791	      0.19095696	    -10.00676103	      0.00000000	      0.00000000	     21.87717695	      0.40010079	      0.21720840	     33.57956896	      0.58607404	     -9.95652085	      0.00000000	      0.00000000	     -5.91360736	     -0.85596489	     -6.09566733	     88.53839024	     -8.11960089	     51.38280940	     25.81737268	     84.00143048	      0.00000000	      0.00000000	     88.99501524	    -16.95032288	     57.04944090	     30.61485251	     85.23920290	      0.00000000	      0.00000000
      2.01500000	     -0.80048691	      4.24179840	      5.52577570	     -0.31440547	      1.00513437	     -0.73312252	      5.21286740	      0.23964796	    -10.01430988	     10.98329648	      0.19169469	     -9.93569994	      0.00000000	      0.00000000	     21.97436846	      0.42544177	      0.14859800	     33.41241837	      0.58315671	    -10.13893080	      0.00000000	      0.00000000	     -5.94905792	     -0.88275934	     -6.13980759	     88.54697569	     -8.00489881	     51.38684124	     25.70194192	     84.20425907	      0.00000000	      0.00000000	     88.98128501	    -17.00776844	     56.95553498	     30.60858067	     85.35921381	      0.00000000	      0.00000000
      2.02000000	     -0.79208475	      4.22022703	      5.55349072	     -0.31478839	      1.00510924	     -0.73295553	      5.25217204	      0.23302934	    -10.11644901	     11.06380612	      0.19309984	     -9.99186815	      0.00000000	      0.00000000	     22.11377433	      0.41760966	      0.02756226	     33.27888918	      0.58082619	    -10.41964964	      0.00000000	      0.00000000	     -5.98790460	     -0.86723954	     -6.08288591	     88.53913463	     -8.08372827	     51.33612455	     25.75277517	     84.30403587	      0.00000000	      0.00000000	     88.98565831	    -16.97899242	     56.93856652	     30.82904336	     85.31254579	      0.00000000	      0.00000000
      2.02500000	     -0.86103279	      4.26525201	      5.52937317	     -0.31529722	      1.00495813	     -0.73278648	      5.42030997	      0.20790358	     -9.96893446	     11.18920633	      0.19528849	    -10.11111789	      0.00000000	      0.00000000	     22.32022726	      0.48521799	     -0.07753260	     33.13804976	      0.57836808	    -10.64513882	      0.00000000	      0.00000000	     -6.00155510	     -0.90676233	     -6.00254364	     88.54747526	     -8.35955872	     51.96854224	     26.28074659	     82.93060633	      0.00000000	      0.00000000	     89.08327178	    -17.12036520	     57.72034681	     30.98463802	     84.18331810	      0.00000000	      0.00000000
      2.03000000	     -0.86430275	      4.24571839	      5.57200112	     -0.31571351	      1.00497781	     -0.73261405	      5.51631070	      0.17245626	    -10.22406735	     11.37316550	      0.19849918	     -9.60209660	      0.00000000	      0.00000000	     22.44665553	      0.49894879	     -0.13384420	     32.93386975	      0.57480446	    -10.86787248	      0.00000000	      0.00000000	     -6.03724386	     -0.90287865	     -5.97819596	     88.46661981	     -8.29472110	     51.18595251	     26.17659727	     83.89535877	      0.00000000	      0.00000000	     89.04413447	    -16.99653020	     57.20052676	     30.99538485	     85.04109689	      0.00000000	      0.00000000
